<?xml version="1.0" encoding="UTF-8" standalone="no"?>
<svg
   xmlns:dc="http://purl.org/dc/elements/1.1/"
   xmlns:cc="http://creativecommons.org/ns#"
   xmlns:rdf="http://www.w3.org/1999/02/22-rdf-syntax-ns#"
   xmlns:svg="http://www.w3.org/2000/svg"
   xmlns="http://www.w3.org/2000/svg"
   xmlns:sodipodi="http://sodipodi.sourceforge.net/DTD/sodipodi-0.dtd"
   xmlns:inkscape="http://www.inkscape.org/namespaces/inkscape"
   version="1.1"
   id="Capa_1"
   x="0px"
   y="0px"
   viewBox="0 0 511.979 511.979"
   style="enable-background:new 0 0 511.979 511.979;"
   xml:space="preserve"
   width="512"
   height="512"
   sodipodi:docname="debug-step-mode-button.svg"
   inkscape:version="1.0 (4035a4fb49, 2020-05-01)"><metadata
   id="metadata13"><rdf:RDF><cc:Work
       rdf:about=""><dc:format>image/svg+xml</dc:format><dc:type
         rdf:resource="http://purl.org/dc/dcmitype/StillImage" /><dc:title></dc:title></cc:Work></rdf:RDF></metadata><defs
   id="defs11" /><sodipodi:namedview
   inkscape:document-rotation="0"
   pagecolor="#ffffff"
   bordercolor="#666666"
   borderopacity="1"
   objecttolerance="10"
   gridtolerance="10"
   guidetolerance="10"
   inkscape:pageopacity="0"
   inkscape:pageshadow="2"
   inkscape:window-width="2560"
   inkscape:window-height="1411"
   id="namedview9"
   showgrid="false"
   inkscape:zoom="1.9749272"
   inkscape:cx="210.6913"
   inkscape:cy="221.91598"
   inkscape:window-x="0"
   inkscape:window-y="0"
   inkscape:window-maximized="1"
   inkscape:current-layer="layer1" />
















<g
   inkscape:groupmode="layer"
   id="layer1"
   inkscape:label="Layer 1"><g
     id="g143"
     transform="matrix(0.69903007,0,0,0.69903007,146.91615,55.206519)"
     style="fill:#000000;fill-opacity:1;stroke:#000000;stroke-opacity:1"><g
       id="g129"
       style="fill:#000000;fill-opacity:1;stroke:#000000;stroke-opacity:1"
       transform="matrix(1.337509,0,0,1.337509,-287.40219,-31.894061)"><path
         id="path127"
         d="m 163.522,331.25 c -37.789,0 -51.662,-36.255 -60.249,-71.72 -1.083,-4.47 -0.054,-9.19 2.79,-12.805 2.844,-3.615 7.189,-5.725 11.789,-5.725 h 91.34 c 4.6,0 8.945,2.11 11.789,5.725 2.844,3.615 3.873,8.334 2.79,12.805 -8.587,35.465 -22.46,71.72 -60.249,71.72 z M 137.675,271 c 10.135,30.252 20.101,30.25 25.848,30.25 5.747,0 15.713,0.002 25.848,-30.25 z"
         style="fill:#000000;fill-opacity:1;stroke:#000000;stroke-opacity:1" /></g><g
       id="g133"
       style="fill:#000000;fill-opacity:1;stroke:#000000;stroke-opacity:1"
       transform="matrix(1.337509,0,0,1.337509,-287.40219,-31.894061)"><path
         id="path131"
         d="m 220.102,210.75 h -113.16 c -7.46,0 -13.787,-5.483 -14.848,-12.868 -1.306,-9.095 -2.633,-19.038 -4.056,-30.398 C 79.546,99.581 87.691,51.049 112.246,23.233 125.663,8.034 143.394,0 163.522,0 c 20.128,0 37.859,8.034 51.276,23.233 24.555,27.816 32.7,76.349 24.208,144.249 v 0.002 c -1.419,11.332 -2.746,21.276 -4.056,30.398 -1.06,7.385 -7.387,12.868 -14.848,12.868 z m -100.097,-30 h 87.034 c 0.714,-5.318 1.443,-10.953 2.199,-16.994 7.169,-57.324 1.156,-100.18 -16.931,-120.67 C 184.642,34.403 174.957,30 163.522,30 c -11.435,0 -21.12,4.403 -28.785,13.086 -18.087,20.49 -24.1,63.346 -16.931,120.672 0.758,6.047 1.487,11.682 2.199,16.992 z"
         style="fill:#000000;fill-opacity:1;stroke:#000000;stroke-opacity:1" /></g><g
       id="g137"
       style="fill:#000000;fill-opacity:1;stroke:#000000;stroke-opacity:1"
       transform="matrix(1.337509,0,0,1.337509,-287.40219,-31.894061)"><path
         id="path135"
         d="m 348.477,512 c -37.789,0 -51.662,-36.255 -60.249,-71.72 -1.083,-4.47 -0.054,-9.19 2.79,-12.805 2.844,-3.615 7.189,-5.725 11.789,-5.725 h 91.34 c 4.6,0 8.945,2.11 11.789,5.725 2.844,3.615 3.873,8.334 2.79,12.805 C 400.14,475.745 386.267,512 348.477,512 Z M 322.63,451.75 c 10.135,30.252 20.101,30.25 25.848,30.25 5.747,0 15.713,0.002 25.848,-30.25 z"
         style="fill:#000000;fill-opacity:1;stroke:#000000;stroke-opacity:1" /></g><g
       id="g141"
       style="fill:#000000;fill-opacity:1;stroke:#000000;stroke-opacity:1"
       transform="matrix(1.337509,0,0,1.337509,-287.40219,-31.894061)"><path
         id="path139"
         d="m 405.058,391.5 h -113.16 c -7.46,0 -13.787,-5.483 -14.848,-12.868 -1.311,-9.123 -2.637,-19.066 -4.056,-30.398 -8.492,-67.902 -0.347,-116.435 24.208,-144.251 13.417,-15.199 31.147,-23.233 51.276,-23.233 20.129,0 37.859,8.034 51.276,23.233 24.555,27.816 32.7,76.349 24.208,144.249 v 0.003 c -1.423,11.36 -2.75,21.303 -4.056,30.398 -1.061,7.384 -7.388,12.867 -14.848,12.867 z m -100.098,-30 h 87.034 c 0.712,-5.311 1.442,-10.946 2.199,-16.994 7.169,-57.324 1.156,-100.18 -16.931,-120.669 -7.666,-8.684 -17.35,-13.086 -28.785,-13.086 -11.435,0 -21.12,4.403 -28.785,13.086 -18.087,20.49 -24.1,63.346 -16.931,120.672 0.756,6.039 1.485,11.674 2.199,16.991 z"
         style="fill:#000000;fill-opacity:1;stroke:#000000;stroke-opacity:1" /></g></g></g><g
   style="fill:#000000;fill-opacity:1;stroke-width:0.999674;stroke-miterlimit:4;stroke-dasharray:none"
   id="g6"
   transform="matrix(0.75447018,0,0,0.75447018,243.69045,0.93625776)">
	<path
   d="m 207.23083,160.13291 c 0,-15.58187 -12.67688,-28.25875 -28.25875,-28.25875 h -9.41958 v -22.43682 l 15.62143,-7.81071 c 0.69391,-0.34727 1.50274,-0.31085 2.16274,0.0973 0.66,0.40818 1.05499,1.11528 1.05499,1.89145 0,5.20213 4.21746,9.41959 9.41959,9.41959 5.20212,0 9.41958,-4.21746 9.41958,-9.41959 0,-7.352922 -3.73455,-14.050874 -9.98915,-17.916671 -6.25524,-3.866424 -13.91712,-4.211181 -20.49325,-0.922491 l -12.40308,6.201226 -9.53513,-19.07026 c 8.77654,-4.80022 14.74228,-14.120583 14.74228,-24.809298 0,-5.202122 -4.21746,-9.419583 -9.41959,-9.419583 -5.20212,0 -9.41958,4.217461 -9.41958,9.419583 0,5.193958 -4.22562,9.419583 -9.41958,9.419583 h -37.67834 c -5.193954,0 -9.419579,-4.225625 -9.419579,-9.419583 0,-5.202122 -4.217461,-9.419583 -9.419583,-9.419583 -5.202121,0 -9.419583,4.217461 -9.419583,9.419583 0,10.688715 5.965736,20.009078 14.742276,24.809926 l -9.53513,19.07026 -12.402451,-6.201226 c -6.577381,-3.28869 -14.238014,-2.943933 -20.493246,0.921863 -6.255231,3.865797 -9.989781,10.563749 -9.989781,17.916671 0,5.20213 4.217461,9.41959 9.419583,9.41959 5.202122,0 9.419583,-4.21746 9.419583,-9.41959 0,-0.77617 0.394366,-1.48327 1.054993,-1.89145 0.660627,-0.40818 1.468827,-0.4446 2.163364,-0.0973 l 15.683606,7.81071 v 22.43682 h -9.48238 c -15.581874,0 -28.258749,12.67688 -28.258749,28.25875 0,5.20213 4.217461,9.41959 9.419583,9.41959 5.202122,0 9.419583,-4.21746 9.419583,-9.41959 0,-5.19395 4.225625,-9.41958 9.419583,-9.41958 h 10.367193 c 1.497086,7.34414 4.717327,14.06469 9.205445,19.73968 -6.432947,6.69795 -10.090258,15.69365 -10.090258,25.36756 v 1.99068 c 0,5.20212 4.154665,9.41958 9.356786,9.41958 5.202122,0 9.419583,-4.21746 9.419583,-9.41958 v -1.9913 c 0,-5.10919 2.133222,-9.83028 5.772949,-13.15288 6.68602,3.64852 14.34791,5.72459 22.4858,5.72459 8.13789,0 15.79978,-2.07607 22.4858,-5.72459 3.63973,3.3226 5.83575,8.04369 5.83575,13.15288 v 1.9913 c 0,5.20212 4.15466,9.41958 9.35678,9.41958 5.20213,0 9.41959,-4.21746 9.41959,-9.41958 v -1.9913 c 0,-9.67392 -3.72011,-18.66962 -10.15306,-25.36757 4.48812,-5.67436 7.70836,-12.39491 9.20545,-19.73905 h 10.36719 c 5.19396,0 9.41958,4.22563 9.41958,9.41958 0,5.20213 4.21746,9.41959 9.41959,9.41959 5.20212,0 9.41958,-4.21746 9.41958,-9.41959 z m -71.75901,-84.776245 9.41958,18.839166 h -44.87427 l 9.41959,-18.839166 z M 94.195831,141.29375 V 113.035 h 18.901959 v 54.89733 C 102.13403,164.04392 94.195831,153.57374 94.195831,141.29375 Z M 131.87416,113.035 h 18.90197 v 28.25875 c 0,12.27999 -7.9382,22.75017 -18.90197,26.63858 z"
   id="path2"
   style="fill:#000000;fill-opacity:1;stroke-width:0.999674;stroke-miterlimit:4;stroke-dasharray:none" />
	<path
   d="M 122.45458,0 C 54.933125,0 0,54.933125 0,122.45458 c 0,67.52146 54.933125,122.45458 122.45458,122.45458 23.54519,0 45.55562,-6.68602 64.24407,-18.25013 5.02252,5.02253 81.57359,81.57359 86.58669,86.58607 11.01715,11.01714 28.94324,11.01714 39.96101,0 11.01652,-11.01715 11.01652,-28.94387 0,-39.96101 L 226.65903,186.69865 C 238.22314,168.0102 244.90916,145.99977 244.90916,122.45458 244.90916,54.933125 189.97604,0 122.45458,0 Z M 18.839166,122.45458 c 0,-57.133539 46.481875,-103.615414 103.615414,-103.615414 57.13354,0 103.61542,46.481875 103.61542,103.615414 C 226.07,179.58812 179.58812,226.07 122.45458,226.07 65.321041,226.07 18.839166,179.58875 18.839166,122.45458 Z M 299.92455,299.92455 c -3.67238,3.67238 -9.64691,3.67113 -13.31866,0 l -51.11506,-51.11505 13.31867,-13.31867 51.11505,51.11506 c 3.67238,3.67175 3.67175,9.64628 0,13.31866 z m -64.43623,-77.75489 -13.31866,13.31866 -20.08444,-20.08443 c 4.77134,-4.09375 9.22492,-8.54733 13.31867,-13.31867 z"
   id="path4"
   style="fill:#000000;fill-opacity:1;stroke-width:0.999674;stroke-miterlimit:4;stroke-dasharray:none" />
</g></svg>
