<?xml version="1.0" encoding="UTF-8" standalone="no"?>
<!DOCTYPE svg PUBLIC "-//W3C//DTD SVG 1.1//EN" "http://www.w3.org/Graphics/SVG/1.1/DTD/svg11.dtd">
<svg width="100%" height="100%" viewBox="0 0 400 400" version="1.1" xmlns="http://www.w3.org/2000/svg" xmlns:xlink="http://www.w3.org/1999/xlink" xml:space="preserve" xmlns:serif="http://www.serif.com/" style="fill-rule:evenodd;clip-rule:evenodd;stroke-linejoin:round;stroke-miterlimit:2;">
    <g transform="matrix(0.870336,0,0,0.870336,-4.80104,37.6758)">
        <g id="g52" transform="matrix(9.12122,0,0,9.12122,-481.268,-529.698)">
            <path id="path50" d="M72.772,80.514L66.126,84.351L64.208,81.028C63.149,79.194 63.778,76.846 65.612,75.787L82.227,66.194L84.145,69.517C85.204,71.351 84.575,73.7 82.741,74.759L79.418,76.677L85.173,86.646C86.232,88.48 85.603,90.828 83.769,91.887L80.446,93.806L72.772,80.514Z"/>
        </g>
        <g id="g64" transform="matrix(9.12122,0,0,9.12122,14.438,79.7062)">
            <path id="path54" d="M28.523,6.491C28.553,6.531 28.582,6.572 28.61,6.617C28.576,6.644 28.54,6.672 28.503,6.701C28.423,6.764 28.337,6.831 28.253,6.905C28.219,6.935 28.189,6.998 28.191,7.042C28.211,7.292 28.257,7.521 28.41,7.743C28.442,7.789 28.461,7.842 28.474,7.9C30.247,6.819 30.843,4.514 29.799,2.706L28.237,0C28.24,0.072 28.242,0.144 28.241,0.215C28.234,0.501 28.222,0.786 28.211,1.073C28.203,1.253 28.196,1.433 28.19,1.613C28.187,1.675 28.19,1.737 28.192,1.8C28.194,1.852 28.197,1.905 28.195,1.957C28.191,2.11 28.184,2.263 28.177,2.417C28.163,2.698 28.149,2.979 28.157,3.26C28.169,3.802 28.213,4.344 28.257,4.886C28.268,4.997 28.323,5.105 28.375,5.204C28.398,5.25 28.399,5.298 28.401,5.342C28.401,5.368 28.402,5.393 28.407,5.414C28.447,5.564 28.425,5.712 28.403,5.859C28.385,5.987 28.366,6.115 28.389,6.241C28.404,6.328 28.461,6.406 28.523,6.491Z" style="fill:rgb(255,82,0);fill-rule:nonzero;"/>
            <path id="path56" d="M25.33,0.855C25.334,0.893 25.335,0.929 25.331,0.964C25.303,1.211 25.397,1.366 25.628,1.443C25.64,1.447 25.652,1.452 25.664,1.456C25.759,1.487 25.858,1.52 25.933,1.584C26.315,1.907 26.31,2.2 26.035,2.582C25.943,2.708 25.944,2.833 26.05,2.931C26.209,3.079 26.324,3.442 26.195,3.589C26.054,3.752 26.049,3.93 26.043,4.109C26.041,4.167 26.039,4.225 26.033,4.283C26.031,4.296 26.03,4.309 26.028,4.321C26.005,4.495 25.979,4.69 26.039,4.838C26.151,5.114 26.103,5.355 25.999,5.607C25.995,5.617 25.991,5.627 25.987,5.636C25.971,5.675 25.955,5.713 25.947,5.753C25.885,6.189 25.823,6.625 25.765,7.059C25.701,7.506 25.538,7.92 25.327,8.311C25.23,8.495 25.117,8.674 25.006,8.851C24.959,8.926 24.911,9.001 24.866,9.077C24.886,9.101 24.91,9.123 24.933,9.145C24.981,9.189 25.027,9.233 25.037,9.285C25.101,9.611 25.13,9.94 24.908,10.228C24.765,10.411 24.726,10.586 24.853,10.792C24.889,10.852 24.899,10.934 24.901,11.009C24.903,11.058 24.905,11.106 24.908,11.154C24.929,11.572 24.95,11.991 24.949,12.409C24.95,12.598 24.938,12.789 24.927,12.978C24.91,13.244 24.894,13.509 24.911,13.774C24.937,14.155 24.911,14.523 24.859,14.898C24.812,15.256 24.746,15.612 24.675,15.97C24.549,16.608 24.419,17.245 24.284,17.878C24.242,18.07 24.194,18.262 24.145,18.454C24.087,18.686 24.028,18.918 23.981,19.153C23.941,19.362 23.928,19.585 23.936,19.799C23.948,20.077 23.972,20.353 23.997,20.638C24.008,20.768 24.019,20.899 24.03,21.034L23.694,20.87C23.702,20.91 23.709,20.949 23.716,20.987C23.729,21.06 23.742,21.13 23.761,21.198C23.771,21.233 23.778,21.27 23.786,21.307C23.816,21.462 23.847,21.619 24.068,21.643C24.101,21.647 24.139,21.686 24.157,21.721C24.171,21.751 24.186,21.78 24.201,21.81C24.251,21.906 24.302,22.003 24.319,22.107C24.387,22.485 24.441,22.867 24.495,23.248C24.507,23.331 24.518,23.414 24.53,23.497C24.538,23.552 24.53,23.609 24.521,23.672C24.517,23.708 24.511,23.746 24.509,23.785C24.371,23.711 24.247,23.643 24.127,23.577L20.229,16.825C20.26,16.525 20.332,16.251 20.505,16.012C20.515,15.997 20.531,15.987 20.547,15.977C20.556,15.971 20.566,15.966 20.573,15.959C20.588,15.946 20.604,15.933 20.621,15.919C20.661,15.888 20.702,15.855 20.717,15.815C20.974,15.121 21.009,14.396 20.986,13.67C20.972,13.292 20.929,12.916 20.885,12.533C20.867,12.378 20.849,12.222 20.833,12.064C20.876,12.082 20.913,12.097 20.948,12.112C20.993,12.13 21.036,12.148 21.086,12.168C21.051,11.988 21.021,11.829 20.994,11.672C20.875,11.008 20.759,10.346 20.77,9.667C20.771,9.602 20.819,9.504 20.873,9.48C21.196,9.315 21.235,9.109 20.982,8.854C20.936,8.807 20.904,8.714 20.91,8.647C20.914,8.609 20.918,8.571 20.921,8.533C20.941,8.337 20.961,8.137 21.022,7.952C21.081,7.775 21.044,7.62 21.006,7.463C20.995,7.418 20.985,7.373 20.976,7.327C20.959,7.246 20.943,7.166 20.926,7.085C20.849,6.717 20.773,6.349 20.711,5.978C20.689,5.837 20.681,5.694 20.674,5.551C20.667,5.409 20.659,5.266 20.637,5.126C20.594,4.852 20.631,4.602 20.741,4.353C20.834,4.145 20.883,3.928 20.832,3.701C20.823,3.661 20.815,3.62 20.806,3.579C20.799,3.546 20.793,3.512 20.786,3.479L25.33,0.855Z" style="fill:rgb(255,82,0);fill-rule:nonzero;"/>
            <path id="path58" d="M18.543,4.774C18.553,4.977 18.56,5.178 18.562,5.38C18.563,5.57 18.533,5.759 18.502,5.949C18.484,6.064 18.466,6.179 18.454,6.295C18.449,6.341 18.469,6.392 18.488,6.441C18.495,6.458 18.502,6.475 18.508,6.493C18.527,6.482 18.548,6.472 18.57,6.463C18.615,6.443 18.661,6.424 18.676,6.392C18.711,6.316 18.736,6.235 18.761,6.154C18.784,6.079 18.807,6.005 18.838,5.934C18.913,5.764 18.996,5.596 19.083,5.421C19.119,5.349 19.155,5.276 19.191,5.202C19.197,5.24 19.203,5.274 19.208,5.304C19.216,5.35 19.223,5.389 19.227,5.429C19.256,5.63 19.296,5.829 19.336,6.028C19.421,6.445 19.505,6.861 19.483,7.295C19.463,7.635 19.439,7.969 19.313,8.284C19.293,8.333 19.222,8.383 19.166,8.395C19.086,8.413 19.002,8.419 18.923,8.424C18.883,8.427 18.845,8.43 18.808,8.434C18.726,8.631 18.829,8.681 18.941,8.735C19.011,8.769 19.084,8.804 19.119,8.877C19.106,8.876 19.095,8.875 19.084,8.874C19.066,8.871 19.051,8.869 19.037,8.872C18.831,8.908 18.825,8.936 18.873,9.138C18.897,9.239 18.894,9.354 18.865,9.453C18.744,9.86 18.509,10.169 18.08,10.29C18.03,10.305 17.958,10.367 17.954,10.407C17.951,10.476 17.982,10.561 18.032,10.609C18.085,10.662 18.15,10.702 18.214,10.741C18.24,10.757 18.266,10.773 18.291,10.789C18.27,10.948 18.266,11.01 18.234,11.034C18.201,11.059 18.138,11.044 17.996,11.054C17.948,11.056 17.901,11.055 17.841,11.053C17.803,11.052 17.76,11.05 17.709,11.05C17.741,11.094 17.769,11.133 17.795,11.169C17.839,11.229 17.876,11.281 17.913,11.335C17.938,11.372 17.962,11.41 17.988,11.448C18.026,11.507 18.067,11.568 18.113,11.635C17.991,11.641 17.877,11.647 17.766,11.654C17.639,11.661 17.518,11.667 17.394,11.673C17.375,11.557 17.356,11.446 17.337,11.336C17.32,11.239 17.304,11.143 17.288,11.046C17.28,11.047 17.273,11.049 17.265,11.05C17.198,11.06 17.149,11.067 17.102,11.072C17.02,11.366 16.905,11.493 16.625,11.624C16.619,11.627 16.613,11.63 16.606,11.633C16.537,11.664 16.46,11.698 16.419,11.753C16.262,11.965 16.239,12.21 16.27,12.462C16.282,12.565 16.294,12.669 16.306,12.773C16.336,13.044 16.366,13.315 16.407,13.586C16.454,13.892 16.501,14.198 16.841,14.345C16.915,14.378 16.976,14.435 17.038,14.491C17.041,14.494 17.043,14.496 17.046,14.499L12.947,16.865C12.943,16.863 12.94,16.861 12.936,16.859C12.912,16.844 12.886,16.833 12.86,16.823C12.824,16.809 12.79,16.794 12.763,16.771C12.308,16.354 12.015,15.85 11.96,15.221C11.945,15.031 12.062,14.901 12.234,14.826C12.387,14.757 12.488,14.849 12.563,14.963C12.621,15.05 12.674,15.138 12.708,15.236C12.757,15.372 12.801,15.511 12.844,15.647C12.865,15.714 12.885,15.781 12.907,15.846C13.073,15.829 13.134,15.805 13.067,15.628C13.027,15.526 13.026,15.407 13.025,15.286C13.025,15.229 13.024,15.172 13.02,15.116C13.28,15.095 13.428,14.965 13.545,14.766C13.745,14.415 13.716,14.047 13.686,13.682C13.681,13.617 13.676,13.552 13.672,13.487C13.659,13.283 13.614,13.083 13.569,12.883C13.513,12.641 13.458,12.397 13.461,12.145C13.462,12.102 13.443,12.047 13.414,12.021C13.396,12.006 13.379,11.993 13.361,11.978C13.218,11.863 13.075,11.748 12.92,11.651C12.816,11.589 12.769,11.527 12.793,11.407C12.827,11.229 12.861,11.051 12.895,10.874C12.929,10.696 12.963,10.518 12.997,10.341C13.002,10.313 13.008,10.285 13.014,10.258C13.043,10.121 13.072,9.987 13.02,9.835C12.982,9.723 13.047,9.576 13.194,9.543C13.336,9.511 13.479,9.489 13.628,9.465C13.691,9.454 13.755,9.444 13.821,9.433C13.819,9.4 13.832,9.365 13.846,9.329C13.879,9.242 13.914,9.149 13.741,9.068C14.01,8.966 13.977,8.774 13.937,8.588C13.921,8.514 13.9,8.441 13.879,8.368C13.843,8.243 13.806,8.118 13.8,7.993C13.79,7.838 13.781,7.681 13.779,7.524L18.543,4.774Z" style="fill:rgb(255,82,0);fill-rule:nonzero;"/>
            <path id="path60" d="M10.452,9.602C9.268,10.801 8.978,12.687 9.861,14.216L9.922,14.322C9.967,14.012 10.008,13.702 10.049,13.392C10.086,13.115 10.122,12.839 10.161,12.564C10.195,12.329 10.235,12.097 10.275,11.864C10.298,11.732 10.321,11.599 10.342,11.467C10.35,11.418 10.358,11.37 10.367,11.321C10.448,10.833 10.53,10.345 10.484,9.85C10.477,9.767 10.466,9.685 10.452,9.602Z" style="fill:rgb(255,82,0);fill-rule:nonzero;"/>
            <path id="path62" d="M26.666,26.667L29.422,25.075C31.257,24.016 31.886,21.669 30.827,19.834L27.74,14.488C27.731,14.518 27.723,14.547 27.714,14.577C27.699,14.632 27.701,14.707 27.726,14.758C27.789,14.882 27.857,15.005 27.925,15.128C28.045,15.346 28.165,15.565 28.26,15.795C28.532,16.46 28.671,17.146 28.305,17.834C28.242,17.955 28.123,18.056 28.007,18.128C27.658,18.346 27.637,18.375 27.732,18.763C27.736,18.777 27.742,18.791 27.748,18.805C27.759,18.833 27.771,18.86 27.764,18.88C27.747,18.929 27.722,18.975 27.697,19.022C27.684,19.045 27.671,19.069 27.66,19.093C27.642,19.083 27.622,19.075 27.602,19.066C27.555,19.047 27.509,19.027 27.493,18.993C27.489,18.983 27.485,18.973 27.481,18.964C27.427,18.842 27.367,18.707 27.376,18.586L27.377,18.575C27.403,18.19 27.404,18.173 27.034,18.104C26.941,18.086 26.845,18.076 26.736,18.064C26.688,18.059 26.638,18.054 26.584,18.047C26.597,18.063 26.606,18.075 26.613,18.085C26.62,18.096 26.625,18.103 26.632,18.106C26.841,18.223 26.897,18.399 26.922,18.64C26.938,18.813 26.856,18.847 26.766,18.884C26.746,18.892 26.725,18.901 26.705,18.911C26.782,19.024 26.858,19.135 26.935,19.246C27.032,19.388 27.129,19.529 27.225,19.67C27.233,19.681 27.243,19.693 27.253,19.705C27.285,19.743 27.319,19.783 27.322,19.826C27.334,20.006 27.421,20.026 27.563,19.955C27.675,20.103 27.642,20.242 27.557,20.376C27.507,20.456 27.451,20.53 27.388,20.597C27.18,20.81 27.106,21.065 27.165,21.354C26.757,21.583 26.692,21.842 26.901,22.566C26.881,22.567 26.86,22.567 26.838,22.567C26.792,22.567 26.743,22.568 26.698,22.58C26.661,22.59 26.626,22.613 26.586,22.64C26.565,22.654 26.542,22.67 26.516,22.685C26.546,22.709 26.578,22.73 26.61,22.75C26.736,22.832 26.847,22.905 26.771,23.086C26.74,23.093 26.707,23.101 26.675,23.11C26.645,23.118 26.613,23.126 26.582,23.133C26.592,23.225 26.602,23.317 26.611,23.408C26.634,23.625 26.657,23.839 26.679,24.055C26.73,24.566 26.752,25.082 26.614,25.586C26.523,25.914 26.573,26.238 26.64,26.55C26.649,26.589 26.657,26.628 26.666,26.667Z" style="fill:rgb(255,82,0);fill-rule:nonzero;"/>
        </g>
    </g>
    <g transform="matrix(20.8781,0,0,20.8781,-50.5344,-48.6592)">
        <path d="M19,19L5,19L5,5L12,5L12,3L5,3C3.89,3 3,3.9 3,5L3,19C3,20.097 3.903,21 5,21L19,21C20.097,21 21,20.097 21,19L21,12L19,12L19,19Z" style="fill-rule:nonzero;"/>
    </g>
    <g transform="matrix(0.884452,0.884452,-0.609017,0.609017,183.879,-261.873)">
        <rect x="171.278" y="36.1" width="186.166" height="186.166" style="fill:rgb(235,235,235);fill-opacity:0;"/>
        <clipPath id="_clip1">
            <rect x="171.278" y="36.1" width="186.166" height="186.166"/>
        </clipPath>
        <g clip-path="url(#_clip1)">
            <g transform="matrix(11.8028,-17.1408,11.8028,17.1408,-11.9844,367.5)">
                <path d="M14,3L14,5L17.59,5L7.76,14.83L9.17,16.24L19,6.41L19,10L21,10L21,3M19,19L5,19L5,5L12,5L12,3L5,3C3.89,3 3,3.9 3,5L3,19C3,20.097 3.903,21 5,21L19,21C20.097,21 21,20.097 21,19L21,12L19,12L19,19Z" style="fill-rule:nonzero;"/>
            </g>
        </g>
    </g>
</svg>
